HIERARCHY
ROOT joint_Root
{
	OFFSET 0.0 0.0 0.0
	CHANNELS 6 Xposition Yposition Zposition Zrotation Xrotation Yrotation 
	JOINT Hips
	{
		OFFSET 4.5925 91.4895 -427.239
		CHANNELS 6 Xposition Yposition Zposition Zrotation Xrotation Yrotation 
		JOINT Spine
		{
			OFFSET 15.7357 0.0 0.0
			CHANNELS 6 Xposition Yposition Zposition Zrotation Xrotation Yrotation 
			JOINT Chest
			{
				OFFSET 8.98455 -0.406207 0.0
				CHANNELS 6 Xposition Yposition Zposition Zrotation Xrotation Yrotation 
				JOINT Neck
				{
					OFFSET 16.3773 0.0 0.0
					CHANNELS 6 Xposition Yposition Zposition Zrotation Xrotation Yrotation 
					JOINT Head
					{
						OFFSET 6.45672 0.0 0.0
						CHANNELS 6 Xposition Yposition Zposition Zrotation Xrotation Yrotation 
						End Site
						{
							OFFSET 0.0 0.0 0.0
						}
					}
				}
				JOINT Shoulder_L
				{
					OFFSET 12.9942 -0.242716 4.98039
					CHANNELS 6 Xposition Yposition Zposition Zrotation Xrotation Yrotation 
					JOINT UpperArm_L
					{
						OFFSET 5.34809 0.0 0.0
						CHANNELS 6 Xposition Yposition Zposition Zrotation Xrotation Yrotation 
						JOINT LowerArm_L
						{
							OFFSET 24.3286 1.87007e-05 0.0
							CHANNELS 6 Xposition Yposition Zposition Zrotation Xrotation Yrotation 
							JOINT Hand_L
							{
								OFFSET 22.2916 0.0 0.0
								CHANNELS 6 Xposition Yposition Zposition Zrotation Xrotation Yrotation 
								End Site
								{
									OFFSET 0.0 0.0 0.0
								}
							}
						}
					}
				}
				JOINT Shoulder_R
				{
					OFFSET 12.9945 -0.242716 -4.98039
					CHANNELS 6 Xposition Yposition Zposition Zrotation Xrotation Yrotation 
					JOINT UpperArm_R
					{
						OFFSET -5.34813 0.0 0.0
						CHANNELS 6 Xposition Yposition Zposition Zrotation Xrotation Yrotation 
						JOINT LowerArm_R
						{
							OFFSET -24.3289 0.000322201 0.0
							CHANNELS 6 Xposition Yposition Zposition Zrotation Xrotation Yrotation 
							JOINT Hand_R
							{
								OFFSET -22.2915 -0.000108084 0.0
								CHANNELS 6 Xposition Yposition Zposition Zrotation Xrotation Yrotation 
								End Site
								{
									OFFSET 0.0 0.0 0.0
								}
							}
						}
					}
				}
			}
		}
		JOINT UpperLeg_L
		{
			OFFSET -2.19248 -6.46944 0.0
			CHANNELS 6 Xposition Yposition Zposition Zrotation Xrotation Yrotation 
			JOINT LowerLeg_L
			{
				OFFSET 39.0811 0.0 -1.23785e-05
				CHANNELS 6 Xposition Yposition Zposition Zrotation Xrotation Yrotation 
				JOINT Foot_L
				{
					OFFSET 40.9854 0.0 -1.26872e-05
					CHANNELS 6 Xposition Yposition Zposition Zrotation Xrotation Yrotation 
					JOINT Toes_L
					{
						OFFSET 11.7543 0.0 0.0
						CHANNELS 6 Xposition Yposition Zposition Zrotation Xrotation Yrotation 
						End Site
						{
							OFFSET 0.0 0.0 0.0
						}
					}
				}
			}
		}
		JOINT UpperLeg_R
		{
			OFFSET -2.19251 6.46944 0.0
			CHANNELS 6 Xposition Yposition Zposition Zrotation Xrotation Yrotation 
			JOINT LowerLeg_R
			{
				OFFSET -39.0811 -0.00228153 -0.0401928
				CHANNELS 6 Xposition Yposition Zposition Zrotation Xrotation Yrotation 
				JOINT Foot_R
				{
					OFFSET -40.9854 0.0 0.0
					CHANNELS 6 Xposition Yposition Zposition Zrotation Xrotation Yrotation 
					JOINT Toes_R
					{
						OFFSET -11.7543 0.0 0.0
						CHANNELS 6 Xposition Yposition Zposition Zrotation Xrotation Yrotation 
						End Site
						{
							OFFSET 0.0 0.0 0.0
						}
					}
				}
			}
		}
	}
}
MOTION
Frames:	7
Frame Time:	0.0333333
0.000000 0.000000 0.000000 0.000000 0.000000 -0.000000 130.438000 87.898700 5.998320 89.701200 -10.766300 4.041440 15.735700 0.000005 -0.000001 104.704000 82.881300 -105.678000 8.984550 -0.406207 -0.000000 6.045930 3.618760 -2.136380 16.377300 -0.000001 -0.000001 -0.813932 -1.290190 1.616650 6.456720 -0.000001 -0.000000 -12.088700 -1.618310 1.808880 12.994200 -0.242716 4.980390 -91.723700 5.542240 -72.693600 5.348090 -0.000007 -0.000001 -72.239800 32.831000 -1.248240 24.328600 0.000019 0.000005 5.408400 26.727300 -11.887800 22.291600 -0.000001 0.000005 6.252240 5.239520 1.708110 12.994500 -0.242716 -4.980390 88.944900 10.435200 -84.194100 -5.348130 -0.000001 -0.000004 -53.399300 34.722400 -22.201700 -24.328900 0.000322 -0.000009 1.219160 2.220260 -28.802300 -22.291500 -0.000108 -0.000004 16.923300 5.459280 -4.974660 -2.192480 -6.469440 -0.000000 179.753000 -10.430000 -20.340700 39.081100 -0.000007 -0.000012 -0.402078 0.402001 45.006400 40.985400 -0.000006 -0.000013 -0.099454 -6.772630 -71.165700 11.754300 -0.000000 0.000003 -0.000344 -0.002917 -16.685700 -2.192510 6.469440 -0.000001 171.288000 8.761890 -173.142000 -39.081100 -0.002282 -0.040193 0.027804 -0.030839 38.489700 -40.985400 0.000008 0.000006 6.919360 10.544600 -73.079100 -11.754300 -0.000006 -0.000006 -0.063754 -0.343784 -30.784600
0.000000 0.000000 0.000000 0.000000 0.000000 -0.000000 131.145000 87.658500 9.129090 89.628000 -10.973400 4.477520 15.735700 0.000005 -0.000001 102.941000 82.978000 -103.856000 8.984550 -0.406207 -0.000000 5.954180 3.151400 -1.991680 16.377300 -0.000001 -0.000001 -0.157211 -1.329920 1.094610 6.456720 -0.000001 -0.000000 -11.792100 -1.449560 0.479002 12.994200 -0.242716 4.980390 -91.833200 5.913560 -72.742300 5.348090 -0.000007 -0.000001 -70.633200 34.479200 -2.972650 24.328600 0.000019 0.000005 5.487800 25.978500 -12.370800 22.291600 -0.000001 0.000005 6.461720 5.248420 1.474710 12.994500 -0.242716 -4.980390 88.851800 10.740500 -83.861700 -5.348130 -0.000001 -0.000004 -55.021500 34.869700 -20.352900 -24.328900 0.000322 -0.000009 1.386090 2.803250 -26.349000 -22.291500 -0.000108 -0.000004 16.850400 5.456220 -4.863800 -2.192480 -6.469440 -0.000000 179.067000 -11.043500 -18.156600 39.081100 -0.000007 -0.000012 -0.224357 0.216362 46.039900 40.985400 -0.000006 -0.000013 2.306820 -7.381090 -73.920800 11.754300 -0.000000 0.000003 -1.140920 -1.581940 -15.709600 -2.192510 6.469440 -0.000001 170.556000 7.977430 -174.336000 -39.081100 -0.002282 -0.040193 0.063630 -0.063129 43.716400 -40.985400 0.000008 0.000006 7.178750 10.005500 -68.840300 -11.754300 -0.000006 -0.000006 -0.111217 -0.471573 -36.313200
0.000000 0.000000 0.000000 0.000000 0.000000 -0.000000 131.881000 87.580000 12.063500 89.633400 -11.012400 5.027450 15.735700 0.000005 -0.000001 101.315000 83.034400 -102.176000 8.984550 -0.406207 -0.000000 5.920950 2.740060 -1.862040 16.377300 -0.000001 -0.000001 0.589901 -1.428050 0.519521 6.456720 -0.000001 -0.000000 -11.188300 -1.345190 -0.919609 12.994200 -0.242716 4.980390 -91.804000 5.828880 -72.769700 5.348090 -0.000007 -0.000001 -68.599900 36.352500 -6.076950 24.328600 0.000019 0.000005 5.546490 25.756800 -12.596600 22.291600 -0.000001 0.000005 7.055870 5.240900 1.671410 12.994500 -0.242716 -4.980390 88.791800 10.635900 -83.481000 -5.348130 -0.000001 -0.000004 -58.088800 33.723500 -17.543200 -24.328900 0.000322 -0.000009 1.732940 3.944970 -23.754500 -22.291500 -0.000108 -0.000004 16.558600 5.446920 -4.529330 -2.192480 -6.469440 -0.000000 178.537000 -12.347200 -15.354800 39.081100 -0.000007 -0.000012 -0.062789 0.060952 45.852100 40.985400 -0.000006 -0.000013 4.413800 -7.167240 -76.041400 11.754300 -0.000000 0.000003 -1.941400 -2.691090 -15.010400 -2.192510 6.469440 -0.000001 169.841000 7.284210 -177.044000 -39.081100 -0.002282 -0.040193 0.103340 -0.082389 50.541800 -40.985400 0.000008 0.000006 6.551050 9.677230 -62.581500 -11.754300 -0.000006 -0.000006 -0.120718 -0.493298 -37.274600
0.000000 0.000000 0.000000 0.000000 0.000000 -0.000000 132.549000 87.681400 14.756000 89.647900 -11.170200 5.547330 15.735700 0.000005 -0.000001 99.584700 83.038400 -100.368000 8.984550 -0.406207 -0.000000 5.983060 2.324320 -1.687180 16.377300 -0.000001 -0.000001 1.105840 -1.414160 -0.001877 6.456720 -0.000001 -0.000000 -10.364200 -1.083800 -2.490010 12.994200 -0.242716 4.980390 -91.797600 5.810590 -72.776300 5.348090 -0.000007 -0.000001 -65.929100 37.214700 -9.887360 24.328600 0.000019 0.000005 5.893380 25.889600 -13.300700 22.291600 -0.000001 0.000005 7.797030 5.236370 1.790390 12.994500 -0.242716 -4.980390 88.758300 10.599100 -83.279100 -5.348130 -0.000001 -0.000004 -60.735000 32.377300 -14.818900 -24.328900 0.000322 -0.000009 1.578120 4.036080 -21.389800 -22.291500 -0.000108 -0.000004 16.189800 5.435020 -4.110740 -2.192480 -6.469440 -0.000000 178.271000 -13.704900 -12.369600 39.081100 -0.000007 -0.000012 0.081812 -0.082101 44.898200 40.985400 -0.000006 -0.000013 6.094160 -6.627420 -77.147200 11.754300 -0.000000 0.000003 -2.379790 -3.270120 -15.137300 -2.192510 6.469440 -0.000001 169.769000 5.543410 178.854000 -39.081100 -0.002282 -0.040193 0.130023 -0.079072 58.054900 -40.985400 0.000008 0.000006 3.486240 7.858050 -54.908300 -11.754300 -0.000006 -0.000006 -0.066603 -0.352659 -31.162500
0.000000 0.000000 0.000000 0.000000 0.000000 -0.000000 133.011000 87.930700 17.186000 89.529700 -10.646200 6.072720 15.735700 0.000005 -0.000001 96.173900 82.991200 -96.825400 8.984550 -0.406207 -0.000000 6.180960 1.512340 -1.383300 16.377300 -0.000001 -0.000001 1.532970 -1.410330 -0.473720 6.456720 -0.000001 -0.000000 -9.764800 -0.697110 -3.792940 12.994200 -0.242716 4.980390 -91.850900 6.056420 -72.970600 5.348090 -0.000007 -0.000001 -62.811600 36.778600 -13.758000 24.328600 0.000019 0.000005 6.512520 25.591000 -14.804300 22.291600 -0.000001 0.000005 8.848940 5.234940 1.826830 12.994500 -0.242716 -4.980390 88.675000 10.813600 -82.972100 -5.348130 -0.000001 -0.000004 -62.392500 31.654500 -12.531300 -24.328900 0.000322 -0.000009 1.310710 3.768560 -19.209700 -22.291500 -0.000108 -0.000004 15.666100 5.430740 -3.964670 -2.192480 -6.469440 -0.000000 178.305000 -13.492800 -9.544140 39.081100 -0.000007 -0.000012 0.076789 -0.080252 43.735600 40.985400 -0.000006 -0.000013 6.103810 -6.354870 -77.158200 11.754300 -0.000000 0.000003 -2.401620 -3.248500 -15.906800 -2.192510 6.469440 -0.000001 170.327000 4.994880 174.994000 -39.081100 -0.002282 -0.040193 0.147154 -0.069892 64.107200 -40.985400 0.000008 0.000006 2.102170 4.060860 -48.662100 -11.754300 -0.000006 -0.000006 -0.021862 -0.177394 -23.824400
0.000000 0.000000 0.000000 0.000000 0.000000 -0.000000 133.317000 88.338400 19.392100 89.293300 -9.576000 6.216940 15.735700 0.000005 -0.000001 92.312900 82.930000 -92.782500 8.984550 -0.406207 -0.000000 6.365130 0.574697 -0.970274 16.377300 -0.000001 -0.000001 1.713500 -1.653430 -0.854660 6.456720 -0.000001 -0.000000 -9.538140 -0.328688 -4.754330 12.994200 -0.242716 4.980390 -91.863700 6.312080 -73.513200 5.348090 -0.000007 -0.000001 -59.650300 35.597200 -17.733000 24.328600 0.000019 0.000005 7.054880 24.149100 -16.831300 22.291600 -0.000001 0.000005 9.883280 5.238310 1.740420 12.994500 -0.242716 -4.980390 88.553100 10.894500 -82.388000 -5.348130 -0.000001 -0.000004 -63.579900 31.548800 -10.535000 -24.328900 0.000322 -0.000009 1.380050 4.328260 -17.718000 -22.291500 -0.000108 -0.000004 15.226100 5.423180 -3.706380 -2.192480 -6.469440 -0.000000 178.329000 -12.355000 -7.102960 39.081100 -0.000007 -0.000012 0.072862 -0.080421 42.175900 40.985400 -0.000006 -0.000013 6.069210 -6.320590 -76.730000 11.754300 -0.000000 0.000003 -2.057220 -2.708650 -16.018900 -2.192510 6.469440 -0.000001 171.572000 5.278230 171.955000 -39.081100 -0.002282 -0.040193 0.125483 -0.049669 67.904400 -40.985400 0.000008 0.000006 2.869930 -0.389504 -51.409400 -11.754300 -0.000006 -0.000006 -0.019789 -0.166117 -23.359600
0.000000 0.000000 0.000000 0.000000 0.000000 -0.000000 133.500000 88.958600 21.450300 88.842200 -8.000970 6.243690 15.735700 0.000005 -0.000001 87.677700 82.773700 -87.887300 8.984550 -0.406207 -0.000000 6.673920 -0.581769 -0.384825 16.377300 -0.000001 -0.000001 1.693690 -1.966100 -1.079460 6.456720 -0.000001 -0.000000 -9.597380 -0.003553 -5.367690 12.994200 -0.242716 4.980390 -91.801300 6.368010 -74.169600 5.348090 -0.000007 -0.000001 -56.967400 33.976400 -21.613700 24.328600 0.000019 0.000005 7.455200 22.516500 -18.866600 22.291600 -0.000001 0.000005 11.302200 5.245590 1.549050 12.994500 -0.242716 -4.980390 88.480800 10.711600 -81.879100 -5.348130 -0.000001 -0.000004 -64.804600 31.522100 -8.597720 -24.328900 0.000322 -0.000009 1.498530 4.970230 -16.813300 -22.291500 -0.000108 -0.000004 14.692000 5.411600 -3.317850 -2.192480 -6.469440 -0.000000 178.751000 -11.268900 -4.717200 39.081100 -0.000007 -0.000012 0.065782 -0.077813 40.209500 40.985400 -0.000006 -0.000013 6.132930 -5.625930 -75.546700 11.754300 -0.000000 0.000003 -1.284570 -1.625270 -16.384700 -2.192510 6.469440 -0.000001 173.325000 6.421700 169.377000 -39.081100 -0.002282 -0.040193 0.098373 -0.037121 68.706900 -40.985400 0.000008 0.000006 4.344130 -3.702650 -53.454100 -11.754300 -0.000006 -0.000006 -0.018025 -0.156094 -22.947000
